<svg width="147" height="47" viewBox="0 0 147 47" fill="none" xmlns="http://www.w3.org/2000/svg">
<path d="M36.9688 34.875C36.9688 36.6042 36.6458 38.0938 36 39.3438C35.375 40.5938 34.5312 41.6562 33.4688 42.5312C32.4062 43.4062 31.1771 44.125 29.7812 44.6875C28.4062 45.2292 26.9688 45.6562 25.4688 45.9688C23.9688 46.2812 22.4583 46.4896 20.9375 46.5938C19.4375 46.6979 18.0312 46.75 16.7188 46.75C15.4271 46.75 14.0833 46.6979 12.6875 46.5938C11.3125 46.5104 9.9375 46.3542 8.5625 46.125C7.1875 45.8958 5.83333 45.5938 4.5 45.2188C3.16667 44.8229 1.90625 44.3333 0.71875 43.75L0.65625 3.5C1.82292 3.02083 3.0625 2.59375 4.375 2.21875C5.6875 1.82292 7.02083 1.5 8.375 1.25C9.75 0.979167 11.1146 0.78125 12.4688 0.65625C13.8229 0.510417 15.1354 0.4375 16.4062 0.4375C17.8854 0.4375 19.375 0.53125 20.875 0.71875C22.3958 0.90625 23.8542 1.21875 25.25 1.65625C26.6458 2.09375 27.9479 2.66667 29.1562 3.375C30.3646 4.0625 31.4167 4.91667 32.3125 5.9375C33.2292 6.95833 33.9375 8.14583 34.4375 9.5C34.9583 10.8542 35.2188 12.4167 35.2188 14.1875C35.2188 15.3542 35.0521 16.4479 34.7188 17.4688C34.3854 18.4896 33.9062 19.4062 33.2812 20.2188C32.6562 21.0312 31.8958 21.7292 31 22.3125C30.1042 22.875 29.0938 23.2917 27.9688 23.5625C29.3229 23.9167 30.5521 24.4375 31.6562 25.125C32.7812 25.8125 33.7292 26.6458 34.5 27.625C35.2917 28.6042 35.8958 29.7083 36.3125 30.9375C36.75 32.1667 36.9688 33.4792 36.9688 34.875ZM21.0938 17.0625C21.0938 16.4583 20.9688 15.9479 20.7188 15.5312C20.4688 15.0938 20.1562 14.7396 19.7812 14.4688C19.4271 14.1979 19.0312 14 18.5938 13.875C18.1771 13.75 17.8021 13.6875 17.4688 13.6875C17.0521 13.6875 16.6458 13.75 16.25 13.875C15.8542 14 15.4688 14.1458 15.0938 14.3125L14.9062 21.25C15.3854 21.25 15.9792 21.2083 16.6875 21.125C17.3958 21.0417 18.0729 20.8646 18.7188 20.5938C19.3854 20.3021 19.9479 19.8854 20.4062 19.3438C20.8646 18.7812 21.0938 18.0208 21.0938 17.0625ZM16.6562 27.25C16.0521 27.25 15.4688 27.3125 14.9062 27.4375L14.7812 34.5625C15.0938 34.625 15.3958 34.6875 15.6875 34.75C16 34.7917 16.3021 34.8125 16.5938 34.8125C17.0312 34.8125 17.5104 34.7708 18.0312 34.6875C18.5521 34.5833 19.0417 34.3958 19.5 34.125C19.9583 33.8333 20.3333 33.4479 20.625 32.9688C20.9375 32.4896 21.0938 31.8542 21.0938 31.0625C21.0938 30.2708 20.9375 29.625 20.625 29.125C20.3333 28.625 19.9688 28.2396 19.5312 27.9688C19.0938 27.6771 18.6146 27.4896 18.0938 27.4062C17.5729 27.3021 17.0938 27.25 16.6562 27.25ZM66.0625 29.4375L64.75 43.3125L38.4375 45.375L39.4375 0.75H55.6875L53.375 29.4375H66.0625ZM106.156 22.0625C106.156 23.9583 105.938 25.7917 105.5 27.5625C105.062 29.3125 104.427 30.9583 103.594 32.5C102.781 34.0417 101.781 35.4583 100.594 36.75C99.4271 38.0208 98.1042 39.1146 96.625 40.0312C95.1667 40.9479 93.5729 41.6667 91.8438 42.1875C90.1146 42.6875 88.2812 42.9375 86.3438 42.9375C84.4688 42.9375 82.6771 42.6979 80.9688 42.2188C79.2812 41.7396 77.6979 41.0729 76.2188 40.2188C74.7396 39.3438 73.3958 38.3021 72.1875 37.0938C71 35.8646 69.9792 34.5104 69.125 33.0312C68.2917 31.5312 67.6354 29.9271 67.1562 28.2188C66.6979 26.5104 66.4688 24.7292 66.4688 22.875C66.4688 21.0625 66.6875 19.2917 67.125 17.5625C67.5625 15.8125 68.1875 14.1667 69 12.625C69.8333 11.0833 70.8333 9.66667 72 8.375C73.1667 7.08333 74.4688 5.96875 75.9062 5.03125C77.3646 4.09375 78.9375 3.36458 80.625 2.84375C82.3125 2.32292 84.0938 2.0625 85.9688 2.0625C88.9896 2.0625 91.7396 2.53125 94.2188 3.46875C96.7188 4.40625 98.8438 5.75 100.594 7.5C102.365 9.22917 103.729 11.3333 104.688 13.8125C105.667 16.2708 106.156 19.0208 106.156 22.0625ZM92.2812 22.875C92.2812 21.9792 92.1458 21.1146 91.875 20.2812C91.625 19.4271 91.25 18.6771 90.75 18.0312C90.25 17.3646 89.625 16.8333 88.875 16.4375C88.1458 16.0208 87.3021 15.8125 86.3438 15.8125C85.3646 15.8125 84.4896 15.9896 83.7188 16.3438C82.9479 16.6979 82.2812 17.1875 81.7188 17.8125C81.1771 18.4167 80.7604 19.1354 80.4688 19.9688C80.1771 20.7812 80.0312 21.6458 80.0312 22.5625C80.0312 23.4375 80.1562 24.3125 80.4062 25.1875C80.6562 26.0625 81.0312 26.8542 81.5312 27.5625C82.0312 28.2708 82.6458 28.8438 83.375 29.2812C84.125 29.7188 84.9896 29.9375 85.9688 29.9375C86.9479 29.9375 87.8229 29.75 88.5938 29.375C89.3854 28.9792 90.0521 28.4583 90.5938 27.8125C91.1354 27.1458 91.5521 26.3854 91.8438 25.5312C92.1354 24.6771 92.2812 23.7917 92.2812 22.875ZM146.125 39C145.146 40.2292 143.938 41.3021 142.5 42.2188C141.062 43.1354 139.521 43.8958 137.875 44.5C136.229 45.1042 134.542 45.5625 132.812 45.875C131.083 46.1667 129.438 46.3125 127.875 46.3125C124.854 46.3125 122.073 45.8021 119.531 44.7812C116.99 43.7604 114.792 42.3438 112.938 40.5312C111.104 38.6979 109.667 36.5208 108.625 34C107.583 31.4792 107.062 28.7292 107.062 25.75C107.062 23.4792 107.323 21.2708 107.844 19.125C108.365 16.9792 109.104 14.9688 110.062 13.0938C111.042 11.2188 112.229 9.5 113.625 7.9375C115.021 6.375 116.604 5.03125 118.375 3.90625C120.146 2.78125 122.083 1.91667 124.188 1.3125C126.312 0.6875 128.562 0.375 130.938 0.375C131.833 0.375 132.792 0.416667 133.812 0.5C134.833 0.5625 135.844 0.6875 136.844 0.875C137.865 1.04167 138.854 1.28125 139.812 1.59375C140.771 1.90625 141.646 2.29167 142.438 2.75L141.562 14.6875C140.396 14.25 139.188 13.9583 137.938 13.8125C136.708 13.6458 135.5 13.5625 134.312 13.5625C132.646 13.5625 131.083 13.7917 129.625 14.25C128.188 14.6875 126.927 15.3438 125.844 16.2188C124.781 17.0938 123.938 18.1875 123.312 19.5C122.688 20.8125 122.375 22.3333 122.375 24.0625C122.375 25.1458 122.521 26.1979 122.812 27.2188C123.104 28.2188 123.542 29.1146 124.125 29.9062C124.729 30.6771 125.469 31.3021 126.344 31.7812C127.24 32.2604 128.271 32.5 129.438 32.5C130.229 32.5 131.042 32.3958 131.875 32.1875C132.729 31.9792 133.458 31.625 134.062 31.125L134.188 28.6875L126.688 28.5625L127.062 19.1875C130.167 19.0833 133.271 19 136.375 18.9375C139.479 18.8542 142.604 18.75 145.75 18.625L146.125 39Z" fill="#97062D"/>
</svg>
